<?xml version="1.0" encoding="utf-8"?>
<!-- Generator: Adobe Illustrator 27.7.0, SVG Export Plug-In . SVG Version: 6.00 Build 0)  -->
<svg version="1.1" id="Слой_1" xmlns="http://www.w3.org/2000/svg" xmlns:xlink="http://www.w3.org/1999/xlink" x="0px" y="0px"
	 viewBox="0 0 1366 768" style="enable-background:new 0 0 1366 768;" xml:space="preserve">
<style type="text/css">
	.st0{fill:#FFFFFF;stroke:#FFFFFF;stroke-miterlimit:10;}
	.st1{fill:#F14635;}
</style>
<rect x="605.9" y="256.2" class="st0" width="270.1" height="270.1"/>
<path class="st1" d="M848.9,174.9H608c-51.7,0-93.5,41.9-93.5,93.5v240.9c0,51.7,41.9,93.5,93.5,93.5h240.9
	c51.7,0,93.5-41.9,93.5-93.5V268.4C942.4,216.8,900.6,174.9,848.9,174.9z M686.4,517.4c-0.1,0.1-0.2,0.1-0.2,0.1
	c0,0-1.7,0.7-4.4-1.2c-1.2-0.8-10.4-9.5-9-37.5c0.6-11.4,3.1-29,6.8-29.1c2.5-0.1,4.7,7.7,5.9,12.1c2.2,8,1.8,14.1,2.4,20.5
	C690.8,512.9,687.7,516.8,686.4,517.4z M769.7,514.8c-1.3,6.3-26.8,11.6-46.8,9.2c-7.9-1.4-12.8-12.4-12.8-29.7
	c0-33.3-1.3-54.4,0.5-77c0.4-5.2,3.5-9.8,6.9-14.4c4.5-6,19-4.5,31.7,2.1c8.8,4.6,10.4,13.5,13,22.8c2.4,8.9,1.5,10.8,3.8,29
	c2,15.2,2.9,15.3,4.1,26.7C772,500.6,771,508.5,769.7,514.8z M813.3,493.9c0,3-13.9,13.4-18,11.8c-4-1.6-7.4-12.8-7.9-22.1
	c-0.5-9.3-2-28.5,4.5-30.2C796.5,452.8,814,473.4,813.3,493.9z M831.7,476.6c0,0-13.3-14.6-22.1-44.6c-5.9-20.3-5.6-29.3-4.9-36.9
	c1.9-6.8,5.9-11.3,11-18c10.5-11.1,8.9-11,22.1-25.4c5-5.5,5.8-17.5-0.8-18.9c-3.7-1-6.4-1.2-10.5,6.3
	c-7.9,14.6-16.7,19.4-26.9,24.4c-2.3,1.1-6.6,2.1-7.7-1.5c-0.3-0.9-0.2-5.8,5.4-14.6c0.8-1.3,11.4-17,1.3-20.8
	c-3.5-1.3-12.2,1.4-17.2,5.1c-8,6.1-10.6,19.1-9.8,23.1c1.8,8.6,4.3,10.1,0,15.4c-8.4,10.5-22.2,11.9-29,11.5
	c-3.5-0.2-17.1,1.9-24.1-9.5c0,0-2.1-8.6-7.2-20.8c-5.1-12.1-9.5-15.3-12.1-17.6c-2.6-2.3-9.6-6.5-7.2-14c2.4-8.8,9-12.4,11-21.3
	c0.7-2.8,2.1-10.5-5.8-11.4c-7.9-0.9-19.6,6.5-24.4,16.3c-3.6,7.2,1.3,16,0.5,20.6c-2.9,10.5-11.1,10.1-15.5,23.2
	c-2.1,11.7-0.5,15.8-3.8,36.8c-4.2,16.6-5.7,16.3-5.6,27.4c0.5,18.1,7.1,15.6,6.8,45.5c0.5,25.6-4.5,43.1-5.3,43.2
	c-12-10.2-19.8-15.9-34.9-36.3c-4.4-6.6-16.4-26-20.5-53.6c-8.2-55,21.8-96.6,25.7-101.9c7.3-9.8,31.7-39.7,75.7-50.8
	c9.5-2.4,44.2-10,83.1,5.6c42.2,17,71.5,51.4,83.6,99.3C874.2,440.6,831.7,476.6,831.7,476.6z"/>
</svg>
